<svg width="24" height="24" viewBox="0 0 24 24" fill="none" xmlns="http://www.w3.org/2000/svg">
<g clip-path="url(#clip0_253_694)">
<path d="M21 7C21 6.33696 20.7366 5.70107 20.2678 5.23223C19.7989 4.76339 19.163 4.5 18.5 4.5C18.33 4.5 18.16 4.5 18 4.55V4C18.0002 3.6144 17.9113 3.23397 17.74 2.88847C17.5688 2.54297 17.32 2.24175 17.013 2.00838C16.7061 1.77501 16.3493 1.61581 15.9706 1.54323C15.5919 1.47065 15.2015 1.48666 14.83 1.59C14.6458 1.12195 14.3251 0.720084 13.9096 0.436556C13.4941 0.153028 13.003 0.000929541 12.5 0C11.27 0 10.25 0.89 10.04 2.06C9.87 2 9.69 2 9.5 2C8.83696 2 8.20108 2.26339 7.73224 2.73223C7.2634 3.20107 7 3.83696 7 4.5V10.39C6.66 10.08 6.24 9.85 5.78 9.73L5 9.5C4.18 9.29 3.31 9.61 2.82 10.35C2.44 10.92 2.42 11.66 2.67 12.3L5.23 18.73C5.84916 20.285 6.92062 21.6185 8.30582 22.558C9.69102 23.4976 11.3262 23.9999 13 24C17.42 24 21 20.42 21 16V7ZM19 16C19 19.31 16.31 22 13 22C11.7278 22.0008 10.4847 21.6201 9.43111 20.907C8.37756 20.194 7.56207 19.1813 7.09 18L4.5 11.45L5 11.59C5.5 11.71 5.85 12.05 6 12.5L7 15H9V4.5C9 4.22 9.22 4 9.5 4C9.78 4 10 4.22 10 4.5V12H12V2.5C12 2.22 12.22 2 12.5 2C12.78 2 13 2.22 13 2.5V12H15V4C15 3.72 15.22 3.5 15.5 3.5C15.78 3.5 16 3.72 16 4V12H18V7C18 6.72 18.22 6.5 18.5 6.5C18.78 6.5 19 6.72 19 7V16Z" fill="#272A2D"/>
</g>
<defs>
<clipPath id="clip0_253_694">
<rect width="24" height="24" fill="white"/>
</clipPath>
</defs>
</svg>
