<svg width="24" height="24" viewBox="0 0 24 24" fill="none" xmlns="http://www.w3.org/2000/svg">
<path d="M12.001 3C17.801 3 22.502 6.664 22.502 11.185C22.502 15.705 17.801 19.369 12.002 19.369C11.4245 19.3693 10.8477 19.3325 10.275 19.259L5.86695 22.142C5.36595 22.407 5.18895 22.378 5.39495 21.729L6.28695 18.051C3.40695 16.591 1.50195 14.061 1.50195 11.185C1.50195 6.665 6.20195 3 12.002 3H12.001ZM17.909 11.06L19.379 9.636C19.4638 9.54791 19.5111 9.43033 19.511 9.30804C19.5108 9.18575 19.4632 9.0683 19.3782 8.98041C19.2931 8.89252 19.1773 8.84107 19.0551 8.83689C18.9329 8.83271 18.8138 8.87613 18.723 8.958L16.795 10.824V9.282C16.795 9.15682 16.7452 9.03676 16.6567 8.94825C16.5682 8.85973 16.4481 8.81 16.323 8.81C16.1978 8.81 16.0777 8.85973 15.9892 8.94825C15.9007 9.03676 15.851 9.15682 15.851 9.282V11.839C15.8333 11.9119 15.8333 11.9881 15.851 12.061V13.5C15.851 13.6252 15.9007 13.7452 15.9892 13.8338C16.0777 13.9223 16.1978 13.972 16.323 13.972C16.4481 13.972 16.5682 13.9223 16.6567 13.8338C16.7452 13.7452 16.795 13.6252 16.795 13.5V12.137L17.222 11.724L18.65 13.757C18.6856 13.8078 18.7309 13.851 18.7833 13.8842C18.8356 13.9175 18.894 13.9401 18.9551 13.9508C19.0162 13.9615 19.0788 13.96 19.1394 13.9465C19.1999 13.933 19.2572 13.9077 19.308 13.872C19.3587 13.8363 19.4019 13.791 19.4352 13.7387C19.4684 13.6863 19.4911 13.6279 19.5017 13.5668C19.5124 13.5057 19.5109 13.4431 19.4974 13.3826C19.4839 13.322 19.4586 13.2648 19.423 13.214L17.909 11.059V11.06ZM14.951 12.984H13.491V9.297C13.4854 9.17571 13.4332 9.06123 13.3454 8.97737C13.2576 8.89351 13.1409 8.84672 13.0195 8.84672C12.898 8.84672 12.7813 8.89351 12.6935 8.97737C12.6057 9.06123 12.5535 9.17571 12.548 9.297V13.456C12.548 13.716 12.758 13.928 13.019 13.928H14.951C15.0761 13.928 15.1962 13.8783 15.2847 13.7898C15.3732 13.7012 15.423 13.5812 15.423 13.456C15.423 13.3308 15.3732 13.2108 15.2847 13.1222C15.1962 13.0337 15.0761 12.984 14.951 12.984ZM9.09395 11.893L9.78995 10.185L10.428 11.892L9.09395 11.893ZM11.617 12.38L11.619 12.364C11.6187 12.2451 11.5733 12.1307 11.492 12.044L10.446 9.244C10.4021 9.11057 10.3186 8.99369 10.2065 8.90899C10.0945 8.8243 9.95928 8.7758 9.81895 8.77C9.67759 8.76938 9.53939 8.81182 9.42274 8.89167C9.30609 8.97152 9.21653 9.08499 9.16595 9.217L7.50395 13.292C7.45661 13.4079 7.45725 13.5379 7.50573 13.6533C7.55421 13.7687 7.64655 13.8602 7.76245 13.9075C7.87835 13.9548 8.00831 13.9542 8.12374 13.9057C8.23917 13.8572 8.33061 13.7649 8.37795 13.649L8.70995 12.836H10.78L11.078 13.636C11.0983 13.6958 11.1304 13.7509 11.1724 13.7981C11.2144 13.8452 11.2655 13.8835 11.3226 13.9105C11.3796 13.9376 11.4415 13.9529 11.5046 13.9557C11.5677 13.9584 11.6307 13.9484 11.6899 13.9263C11.7491 13.9042 11.8032 13.8704 11.8491 13.8271C11.895 13.7837 11.9317 13.7315 11.9571 13.6737C11.9825 13.6158 11.996 13.5535 11.9968 13.4903C11.9976 13.4272 11.9858 13.3645 11.962 13.306L11.617 12.38ZM8.29495 9.302C8.29495 9.17699 8.24536 9.05709 8.15706 8.9686C8.06876 8.88011 7.94896 8.83026 7.82395 8.83H4.57895C4.45377 8.83 4.33372 8.87973 4.2452 8.96825C4.15668 9.05676 4.10695 9.17682 4.10695 9.302C4.10695 9.42718 4.15668 9.54724 4.2452 9.63575C4.33372 9.72427 4.45377 9.774 4.57895 9.774H5.73895V13.51C5.73895 13.6352 5.78868 13.7552 5.8772 13.8438C5.96572 13.9323 6.08577 13.982 6.21095 13.982C6.33614 13.982 6.45619 13.9323 6.54471 13.8438C6.63322 13.7552 6.68295 13.6352 6.68295 13.51V9.774H7.82295C7.94814 9.774 8.06819 9.72427 8.15671 9.63575C8.24522 9.54724 8.29495 9.42718 8.29495 9.302Z" fill="#3B1C1C"/>
</svg>
